<svg xmlns="http://www.w3.org/2000/svg" xmlns:xlink="http://www.w3.org/1999/xlink" width="100" zoomAndPan="magnify" viewBox="0 0 75 52.499999" height="70" preserveAspectRatio="xMidYMid meet" version="1.0"><defs><filter x="0%" y="0%" width="100%" height="100%" id="aa0d18d536"><feColorMatrix values="0 0 0 0 1 0 0 0 0 1 0 0 0 0 1 0 0 0 1 0" color-interpolation-filters="sRGB"/></filter><clipPath id="33bc58a96d"><path d="M 18 8.070312 L 72 8.070312 L 72 51.363281 L 18 51.363281 Z M 18 8.070312 " clip-rule="nonzero"/></clipPath><clipPath id="502b2aad14"><path d="M 38.039062 8.070312 L 66.476562 8.070312 C 68.195312 8.070312 69.8125 8.898438 70.820312 10.292969 C 71.824219 11.691406 72.101562 13.484375 71.554688 15.117188 L 61.824219 44.316406 C 60.421875 48.523438 56.480469 51.363281 52.042969 51.363281 L 23.609375 51.363281 C 21.886719 51.363281 20.273438 50.535156 19.265625 49.140625 C 18.257812 47.742188 17.984375 45.949219 18.53125 44.316406 L 28.261719 15.117188 C 29.664062 10.910156 33.605469 8.070312 38.039062 8.070312 Z M 38.039062 8.070312 " clip-rule="nonzero"/></clipPath><clipPath id="493990e782"><path d="M 0.355469 0 L 59 0 L 59 44 L 0.355469 44 Z M 0.355469 0 " clip-rule="nonzero"/></clipPath><mask id="442503cca5"><g filter="url(#aa0d18d536)"><rect x="-7.5" width="90" fill="#000000" y="-5.25" height="62.999998" fill-opacity="0.8"/></g></mask><clipPath id="2311e980b1"><path d="M 2.636719 0.101562 L 56.753906 0.101562 L 56.753906 43.394531 L 2.636719 43.394531 Z M 2.636719 0.101562 " clip-rule="nonzero"/></clipPath><clipPath id="cae853b756"><path d="M 22.691406 0.101562 L 51.125 0.101562 C 52.847656 0.101562 54.464844 0.929688 55.472656 2.324219 C 56.476562 3.722656 56.75 5.515625 56.207031 7.148438 L 46.472656 36.347656 C 45.070312 40.554688 41.132812 43.394531 36.695312 43.394531 L 8.261719 43.394531 C 6.539062 43.394531 4.921875 42.566406 3.917969 41.171875 C 2.910156 39.773438 2.636719 37.980469 3.179688 36.347656 L 12.914062 7.148438 C 14.316406 2.941406 18.253906 0.101562 22.691406 0.101562 Z M 22.691406 0.101562 " clip-rule="nonzero"/></clipPath><clipPath id="6d49ff9b05"><rect x="0" width="59" y="0" height="44"/></clipPath></defs><g clip-path="url(#33bc58a96d)"><g clip-path="url(#502b2aad14)"><path fill="#0558ee" d="M 16.179688 8.070312 L 73.90625 8.070312 L 73.90625 51.363281 L 16.179688 51.363281 Z M 16.179688 8.070312 " fill-opacity="1" fill-rule="nonzero"/></g></g><g clip-path="url(#493990e782)"><g mask="url(#442503cca5)"><g transform="matrix(1, 0, 0, 1, 0.000000000000000111, 0)"><g clip-path="url(#6d49ff9b05)"><g clip-path="url(#2311e980b1)"><g clip-path="url(#cae853b756)"><path fill="#21e8e6" d="M 0.832031 0.101562 L 58.554688 0.101562 L 58.554688 43.394531 L 0.832031 43.394531 Z M 0.832031 0.101562 " fill-opacity="1" fill-rule="nonzero"/></g></g></g></g></g></g></svg>