<svg xmlns="http://www.w3.org/2000/svg" xmlns:xlink="http://www.w3.org/1999/xlink" width="426" zoomAndPan="magnify" viewBox="0 0 319.5 94.499997" height="126" preserveAspectRatio="xMidYMid meet" version="1.0"><defs><filter x="0%" y="0%" width="100%" height="100%" id="78783c3b1d"><feColorMatrix values="0 0 0 0 1 0 0 0 0 1 0 0 0 0 1 0 0 0 1 0" color-interpolation-filters="sRGB"/></filter><g/><clipPath id="91cb070cb9"><path d="M 18.296875 24.515625 L 72.640625 24.515625 L 72.640625 67.992188 L 18.296875 67.992188 Z M 18.296875 24.515625 " clip-rule="nonzero"/></clipPath><clipPath id="d0b4db0d5f"><path d="M 38.4375 24.515625 L 66.992188 24.515625 C 68.722656 24.515625 70.34375 25.347656 71.355469 26.75 C 72.367188 28.152344 72.640625 29.953125 72.09375 31.59375 L 62.320312 60.914062 C 60.910156 65.140625 56.957031 67.992188 52.5 67.992188 L 23.945312 67.992188 C 22.21875 67.992188 20.59375 67.160156 19.582031 65.757812 C 18.574219 64.355469 18.296875 62.554688 18.84375 60.914062 L 28.617188 31.59375 C 30.027344 27.367188 33.980469 24.515625 38.4375 24.515625 Z M 38.4375 24.515625 " clip-rule="nonzero"/></clipPath><mask id="186e5fccee"><g filter="url(#78783c3b1d)"><rect x="-31.95" width="383.4" fill="#000000" y="-9.45" height="113.399996" fill-opacity="0.8"/></g></mask><clipPath id="e51c4ccb49"><path d="M 2 0.515625 L 56 0.515625 L 56 43.992188 L 2 43.992188 Z M 2 0.515625 " clip-rule="nonzero"/></clipPath><clipPath id="84c3ff161a"><path d="M 22.023438 0.515625 L 50.578125 0.515625 C 52.308594 0.515625 53.929688 1.34375 54.941406 2.746094 C 55.953125 4.148438 56.226562 5.953125 55.679688 7.59375 L 45.90625 36.914062 C 44.496094 41.140625 40.542969 43.992188 36.085938 43.992188 L 7.53125 43.992188 C 5.804688 43.992188 4.179688 43.160156 3.171875 41.757812 C 2.160156 40.355469 1.882812 38.550781 2.429688 36.914062 L 12.203125 7.59375 C 13.613281 3.367188 17.570312 0.515625 22.023438 0.515625 Z M 22.023438 0.515625 " clip-rule="nonzero"/></clipPath><clipPath id="00acc25091"><rect x="0" width="59" y="0" height="45"/></clipPath></defs><g clip-path="url(#91cb070cb9)"><g clip-path="url(#d0b4db0d5f)"><path fill="#0558ee" d="M 16.484375 24.515625 L 74.453125 24.515625 L 74.453125 67.992188 L 16.484375 67.992188 Z M 16.484375 24.515625 " fill-opacity="1" fill-rule="nonzero"/></g></g><g mask="url(#186e5fccee)"><g transform="matrix(1, 0, 0, 1, 1, 16)"><g clip-path="url(#00acc25091)"><g clip-path="url(#e51c4ccb49)"><g clip-path="url(#84c3ff161a)"><path fill="#21e8e6" d="M 0.0703125 0.515625 L 58.039062 0.515625 L 58.039062 43.992188 L 0.0703125 43.992188 Z M 0.0703125 0.515625 " fill-opacity="1" fill-rule="nonzero"/></g></g></g></g></g><g fill="#f2f2f2" fill-opacity="1"><g transform="translate(75.059495, 60.816924)"><g><path d="M 0.695312 -34.84375 L 0.695312 0 L 5.773438 0 L 5.773438 -11.597656 L 13.4375 -11.597656 C 20.953125 -11.597656 24.738281 -17.371094 24.738281 -23.195312 C 24.738281 -29.019531 20.953125 -34.84375 13.4375 -34.84375 Z M 5.773438 -16.574219 L 5.773438 -29.765625 L 13.4375 -29.765625 C 17.667969 -29.765625 19.761719 -26.480469 19.761719 -23.144531 C 19.761719 -19.859375 17.667969 -16.574219 13.4375 -16.574219 Z M 5.773438 -16.574219 "/></g></g></g><g fill="#f2f2f2" fill-opacity="1"><g transform="translate(102.334095, 60.816924)"><g><path d="M 7.664062 -15.28125 L 20.359375 0 L 26.878906 0 L 15.878906 -13.089844 C 21.851562 -14.136719 24.886719 -18.816406 24.886719 -23.742188 C 24.886719 -29.265625 21.105469 -34.84375 13.539062 -34.84375 L 0.847656 -34.84375 L 0.847656 0 L 5.824219 0 L 5.824219 -29.765625 L 13.539062 -29.765625 C 17.769531 -29.765625 19.859375 -26.730469 19.859375 -23.742188 C 19.859375 -20.707031 17.769531 -17.667969 13.539062 -17.667969 L 7.664062 -17.667969 Z M 7.664062 -15.28125 "/></g></g></g><g fill="#f2f2f2" fill-opacity="1"><g transform="translate(129.509156, 60.816924)"><g><path d="M 30.3125 -17.421875 C 30.3125 -13.835938 28.867188 -10.703125 26.628906 -8.410156 C 24.289062 -6.074219 21.054688 -4.628906 17.621094 -4.628906 C 14.1875 -4.628906 11 -6.074219 8.710938 -8.410156 C 6.421875 -10.703125 4.976562 -13.886719 4.976562 -17.421875 C 4.976562 -20.953125 6.421875 -24.140625 8.710938 -26.429688 C 11 -28.769531 14.1875 -30.210938 17.621094 -30.210938 C 21.054688 -30.210938 24.289062 -28.769531 26.628906 -26.429688 C 28.867188 -24.140625 30.3125 -21.003906 30.3125 -17.421875 Z M -0.0976562 -17.421875 C -0.0976562 -12.492188 1.941406 -8.0625 5.078125 -4.828125 C 8.261719 -1.542969 12.742188 0.449219 17.621094 0.449219 C 22.546875 0.449219 26.976562 -1.542969 30.210938 -4.828125 C 33.347656 -8.0625 35.390625 -12.492188 35.390625 -17.421875 C 35.390625 -22.347656 33.347656 -26.777344 30.210938 -30.015625 C 26.976562 -33.25 22.546875 -35.289062 17.621094 -35.289062 C 12.742188 -35.289062 8.261719 -33.25 5.078125 -30.015625 C 1.941406 -26.777344 -0.0976562 -22.347656 -0.0976562 -17.421875 Z M -0.0976562 -17.421875 "/></g></g></g><g fill="#f2f2f2" fill-opacity="1"><g transform="translate(167.982225, 60.816924)"><g><path d="M 5.972656 -24.539062 L 15.082031 -11 L 17.917969 -11 L 27.027344 -24.539062 L 27.027344 0 L 32.003906 0 L 32.003906 -34.84375 L 28.023438 -34.84375 L 16.523438 -17.917969 L 5.027344 -34.84375 L 0.945312 -34.84375 L 0.945312 0 L 5.972656 0 Z M 5.972656 -24.539062 "/></g></g></g><g fill="#f2f2f2" fill-opacity="1"><g transform="translate(203.916973, 60.816924)"><g><path d="M 0.695312 -34.84375 L 0.695312 0 L 5.773438 0 L 5.773438 -11.597656 L 13.4375 -11.597656 C 20.953125 -11.597656 24.738281 -17.371094 24.738281 -23.195312 C 24.738281 -29.019531 20.953125 -34.84375 13.4375 -34.84375 Z M 5.773438 -16.574219 L 5.773438 -29.765625 L 13.4375 -29.765625 C 17.667969 -29.765625 19.761719 -26.480469 19.761719 -23.144531 C 19.761719 -19.859375 17.667969 -16.574219 13.4375 -16.574219 Z M 5.773438 -16.574219 "/></g></g></g><g fill="#f2f2f2" fill-opacity="1"><g transform="translate(231.191573, 60.816924)"><g><path d="M 14.582031 0.148438 L 14.582031 -30.164062 L 25.085938 -30.164062 L 25.085938 -34.84375 L -0.996094 -34.84375 L -0.996094 -30.164062 L 9.554688 -30.164062 L 9.554688 0.148438 Z M 14.582031 0.148438 "/></g></g></g><g fill="#f2f2f2" fill-opacity="1"><g transform="translate(258.515948, 60.816924)"><g><path d="M 7.664062 -15.28125 L 20.359375 0 L 26.878906 0 L 15.878906 -13.089844 C 21.851562 -14.136719 24.886719 -18.816406 24.886719 -23.742188 C 24.886719 -29.265625 21.105469 -34.84375 13.539062 -34.84375 L 0.847656 -34.84375 L 0.847656 0 L 5.824219 0 L 5.824219 -29.765625 L 13.539062 -29.765625 C 17.769531 -29.765625 19.859375 -26.730469 19.859375 -23.742188 C 19.859375 -20.707031 17.769531 -17.667969 13.539062 -17.667969 L 7.664062 -17.667969 Z M 7.664062 -15.28125 "/></g></g></g></svg>