<svg xmlns="http://www.w3.org/2000/svg" xmlns:xlink="http://www.w3.org/1999/xlink" width="409" zoomAndPan="magnify" viewBox="0 0 306.75 94.499997" height="126" preserveAspectRatio="xMidYMid meet" version="1.0"><defs><filter x="0%" y="0%" width="100%" height="100%" id="430043b634"><feColorMatrix values="0 0 0 0 1 0 0 0 0 1 0 0 0 0 1 0 0 0 1 0" color-interpolation-filters="sRGB"/></filter><g/><clipPath id="95b08529ee"><path d="M 18.386719 24.515625 L 72.730469 24.515625 L 72.730469 67.992188 L 18.386719 67.992188 Z M 18.386719 24.515625 " clip-rule="nonzero"/></clipPath><clipPath id="ff685c3321"><path d="M 38.527344 24.515625 L 67.082031 24.515625 C 68.8125 24.515625 70.433594 25.347656 71.445312 26.75 C 72.457031 28.152344 72.730469 29.953125 72.183594 31.59375 L 62.410156 60.914062 C 61.003906 65.140625 57.046875 67.992188 52.589844 67.992188 L 24.035156 67.992188 C 22.308594 67.992188 20.683594 67.160156 19.675781 65.757812 C 18.664062 64.355469 18.390625 62.554688 18.933594 60.914062 L 28.707031 31.59375 C 30.117188 27.367188 34.074219 24.515625 38.527344 24.515625 Z M 38.527344 24.515625 " clip-rule="nonzero"/></clipPath><mask id="74dfe2815c"><g filter="url(#430043b634)"><rect x="-30.675" width="368.1" fill="#000000" y="-9.45" height="113.399996" fill-opacity="0.8"/></g></mask><clipPath id="63de8b4603"><path d="M 2 0.515625 L 56.320312 0.515625 L 56.320312 43.992188 L 2 43.992188 Z M 2 0.515625 " clip-rule="nonzero"/></clipPath><clipPath id="19758e450f"><path d="M 22.113281 0.515625 L 50.667969 0.515625 C 52.398438 0.515625 54.019531 1.34375 55.03125 2.746094 C 56.042969 4.148438 56.316406 5.953125 55.769531 7.59375 L 45.996094 36.914062 C 44.589844 41.140625 40.632812 43.992188 36.179688 43.992188 L 7.625 43.992188 C 5.894531 43.992188 4.273438 43.160156 3.261719 41.757812 C 2.25 40.355469 1.976562 38.550781 2.523438 36.914062 L 12.296875 7.59375 C 13.703125 3.367188 17.660156 0.515625 22.113281 0.515625 Z M 22.113281 0.515625 " clip-rule="nonzero"/></clipPath><clipPath id="3ca96a4e05"><rect x="0" width="59" y="0" height="45"/></clipPath></defs><g clip-path="url(#95b08529ee)"><g clip-path="url(#ff685c3321)"><path fill="#0558ee" d="M 16.574219 24.515625 L 74.542969 24.515625 L 74.542969 67.992188 L 16.574219 67.992188 Z M 16.574219 24.515625 " fill-opacity="1" fill-rule="nonzero"/></g></g><g mask="url(#74dfe2815c)"><g transform="matrix(1, 0, 0, 1, 1, 16)"><g clip-path="url(#3ca96a4e05)"><g clip-path="url(#63de8b4603)"><g clip-path="url(#19758e450f)"><path fill="#21e8e6" d="M 0.164062 0.515625 L 58.128906 0.515625 L 58.128906 43.992188 L 0.164062 43.992188 Z M 0.164062 0.515625 " fill-opacity="1" fill-rule="nonzero"/></g></g></g></g></g><g fill="#050419" fill-opacity="1"><g transform="translate(75.150284, 60.071263)"><g><path d="M 0.695312 -34.84375 L 0.695312 0 L 5.773438 0 L 5.773438 -11.597656 L 13.441406 -11.597656 C 20.957031 -11.597656 24.738281 -17.371094 24.738281 -23.195312 C 24.738281 -29.019531 20.957031 -34.84375 13.441406 -34.84375 Z M 5.773438 -16.574219 L 5.773438 -29.765625 L 13.441406 -29.765625 C 17.671875 -29.765625 19.761719 -26.480469 19.761719 -23.144531 C 19.761719 -19.859375 17.671875 -16.574219 13.441406 -16.574219 Z M 5.773438 -16.574219 "/></g></g></g><g fill="#050419" fill-opacity="1"><g transform="translate(102.427436, 60.071263)"><g><path d="M 7.664062 -15.28125 L 20.359375 0 L 26.878906 0 L 15.878906 -13.089844 C 21.851562 -14.136719 24.886719 -18.816406 24.886719 -23.742188 C 24.886719 -29.269531 21.105469 -34.84375 13.539062 -34.84375 L 0.847656 -34.84375 L 0.847656 0 L 5.824219 0 L 5.824219 -29.765625 L 13.539062 -29.765625 C 17.769531 -29.765625 19.859375 -26.730469 19.859375 -23.742188 C 19.859375 -20.707031 17.769531 -17.671875 13.539062 -17.671875 L 7.664062 -17.671875 Z M 7.664062 -15.28125 "/></g></g></g><g fill="#050419" fill-opacity="1"><g transform="translate(129.605036, 60.071263)"><g><path d="M 30.3125 -17.421875 C 30.3125 -13.839844 28.871094 -10.703125 26.628906 -8.414062 C 24.289062 -6.074219 21.054688 -4.628906 17.621094 -4.628906 C 14.1875 -4.628906 11 -6.074219 8.710938 -8.414062 C 6.421875 -10.703125 4.976562 -13.886719 4.976562 -17.421875 C 4.976562 -20.957031 6.421875 -24.140625 8.710938 -26.429688 C 11 -28.769531 14.1875 -30.214844 17.621094 -30.214844 C 21.054688 -30.214844 24.289062 -28.769531 26.628906 -26.429688 C 28.871094 -24.140625 30.3125 -21.003906 30.3125 -17.421875 Z M -0.0976562 -17.421875 C -0.0976562 -12.492188 1.941406 -8.0625 5.078125 -4.828125 C 8.261719 -1.542969 12.742188 0.449219 17.621094 0.449219 C 22.546875 0.449219 26.980469 -1.542969 30.214844 -4.828125 C 33.351562 -8.0625 35.390625 -12.492188 35.390625 -17.421875 C 35.390625 -22.351562 33.351562 -26.78125 30.214844 -30.015625 C 26.980469 -33.25 22.546875 -35.292969 17.621094 -35.292969 C 12.742188 -35.292969 8.261719 -33.25 5.078125 -30.015625 C 1.941406 -26.78125 -0.0976562 -22.351562 -0.0976562 -17.421875 Z M -0.0976562 -17.421875 "/></g></g></g><g fill="#050419" fill-opacity="1"><g transform="translate(168.081734, 60.071263)"><g><path d="M 5.972656 -24.539062 L 15.082031 -11 L 17.917969 -11 L 27.027344 -24.539062 L 27.027344 0 L 32.007812 0 L 32.007812 -34.84375 L 28.023438 -34.84375 L 16.527344 -17.917969 L 5.027344 -34.84375 L 0.945312 -34.84375 L 0.945312 0 L 5.972656 0 Z M 5.972656 -24.539062 "/></g></g></g><g fill="#050419" fill-opacity="1"><g transform="translate(204.01986, 60.071263)"><g><path d="M 0.695312 -34.84375 L 0.695312 0 L 5.773438 0 L 5.773438 -11.597656 L 13.441406 -11.597656 C 20.957031 -11.597656 24.738281 -17.371094 24.738281 -23.195312 C 24.738281 -29.019531 20.957031 -34.84375 13.441406 -34.84375 Z M 5.773438 -16.574219 L 5.773438 -29.765625 L 13.441406 -29.765625 C 17.671875 -29.765625 19.761719 -26.480469 19.761719 -23.144531 C 19.761719 -19.859375 17.671875 -16.574219 13.441406 -16.574219 Z M 5.773438 -16.574219 "/></g></g></g><g fill="#050419" fill-opacity="1"><g transform="translate(231.297009, 60.071263)"><g><path d="M 14.585938 0.148438 L 14.585938 -30.164062 L 25.085938 -30.164062 L 25.085938 -34.84375 L -0.996094 -34.84375 L -0.996094 -30.164062 L 9.558594 -30.164062 L 9.558594 0.148438 Z M 14.585938 0.148438 "/></g></g></g><g fill="#050419" fill-opacity="1"><g transform="translate(258.623939, 60.071263)"><g><path d="M 7.664062 -15.28125 L 20.359375 0 L 26.878906 0 L 15.878906 -13.089844 C 21.851562 -14.136719 24.886719 -18.816406 24.886719 -23.742188 C 24.886719 -29.269531 21.105469 -34.84375 13.539062 -34.84375 L 0.847656 -34.84375 L 0.847656 0 L 5.824219 0 L 5.824219 -29.765625 L 13.539062 -29.765625 C 17.769531 -29.765625 19.859375 -26.730469 19.859375 -23.742188 C 19.859375 -20.707031 17.769531 -17.671875 13.539062 -17.671875 L 7.664062 -17.671875 Z M 7.664062 -15.28125 "/></g></g></g></svg>